<?xml version="1.0" encoding="UTF-8" standalone="no"?>
<svg
   version="1.1"
   id="Layer_1"
   x="0px"
   y="0px"
   viewBox="0 0 1000 1000"
   enable-background="new 0 0 1357 1920"
   xml:space="preserve"
   sodipodi:docname="shopping_list.svg"
   inkscape:export-filename="shopping_list.svg"
   inkscape:export-xdpi="25.417725"
   inkscape:export-ydpi="25.417725"
   width="1000"
   height="1000"
   inkscape:version="1.3.2 (091e20ef0f, 2023-11-25, custom)"
   xmlns:inkscape="http://www.inkscape.org/namespaces/inkscape"
   xmlns:sodipodi="http://sodipodi.sourceforge.net/DTD/sodipodi-0.dtd"
   xmlns="http://www.w3.org/2000/svg"
   xmlns:svg="http://www.w3.org/2000/svg"><sodipodi:namedview
   id="namedview1"
   pagecolor="#ffffff"
   bordercolor="#000000"
   borderopacity="0.25"
   inkscape:showpageshadow="2"
   inkscape:pageopacity="0.0"
   inkscape:pagecheckerboard="0"
   inkscape:deskcolor="#d1d1d1"
   inkscape:zoom="0.35319641"
   inkscape:cx="686.58682"
   inkscape:cy="598.81696"
   inkscape:window-width="1364"
   inkscape:window-height="749"
   inkscape:window-x="0"
   inkscape:window-y="17"
   inkscape:window-maximized="1"
   inkscape:current-layer="Layer_1" /><defs
   id="defs64"><clipPath
     clipPathUnits="userSpaceOnUse"
     id="clipPath1"><rect
       style="opacity:0.75;fill:#ff9955;stroke:#000000;stroke-width:0"
       id="rect2"
       width="1135.988"
       height="1537.9373"
       x="116.07293"
       y="197.73627" /></clipPath></defs>
<g
   id="g64"
   clip-path="url(#clipPath1)"
   inkscape:export-filename="shopping_list.svg"
   inkscape:export-xdpi="25.417725"
   inkscape:export-ydpi="25.417725"
   transform="matrix(0.88143945,0,0,0.65597292,-102.65143,-134.37073)">
	<path
   fill="#ffffff"
   stroke="#ffffff"
   stroke-width="0.0938"
   d="m 696.27,88.96 c 6.04,-1.32 12.94,-1.04 18.16,2.65 5.38,4.06 9.74,10.38 9.38,17.38 0.74,9.96 -7.55,19.03 -17.21,20.39 -8.47,1.5 -17.53,-2.67 -21.92,-10.04 -3.99,-6.29 -4.19,-14.77 -0.37,-21.18 2.69,-4.39 7.05,-7.67 11.96,-9.2 z"
   id="path1" />
	<path
   fill="#ffffff"
   stroke="#ffffff"
   stroke-width="0.0938"
   d="m 411.52,280.98 c -0.04,-1.6 -0.04,-3.19 0.02,-4.78 5.14,0.4 10.3,0.21 15.46,0.24 170,0 340,0 510,0 14.47,-0.2 28.98,0.41 43.43,-0.32 2.03,1.1 2.49,3.28 1.92,5.39 -4.0099,-1.25 -8.24,-0.7 -12.35,-0.78 -160.33,0.01 -320.67,0 -481,0 -25.83,0.16 -51.67,-0.32 -77.48,0.25 z"
   id="path2" />
	<path
   fill="#373737"
   stroke="#373737"
   stroke-width="0.0938"
   d="m 659.25,73.23 c 22.05,-10.24 47.92,-11.83 71.09,-4.53 14.96,4.68 28.84,12.93 39.8199,24.14 19.6,18.71 29.56,46.11 29.23,72.96 2.06,0.1 4.15,0.05 6.21,0.35 2.44,0.42 4.88,0.86 7.37,0.91 31.01,-0.13 62.02,-0.02 93.03,-0.07 7.15,-0.21 14.39,0.7 21.45,-0.84 10.67,13.3 19.93,27.82 27.67,43.01 7.66,15.8 14.87,31.89 20.14,48.67 1.37,4.86 2.83,9.69 4.52,14.45 0.09,0.71 0.28,2.14 0.37,2.85 -185.05,-0.1 -370.1,0.01 -555.15,-0.06 -4.5,0.07 -9.2,-0.68 -13.46,1.13 -0.06,1.59 -0.06,3.18 -0.02,4.78 1.46,0.42 2.92,0.9 4.45,1.01 188.77,0.06 377.55,-0.07 566.3199,0.07 3.2401,15.79 5.65,31.77 6.57,47.89 0.25,5.16 0.74,10.42 -0.36,15.53 -196.75,0.12 -393.49,0.05 -590.24,0.03 -0.43,-2.49 -0.61,-5.02 -0.44,-7.54 0.81,-11.96 1.31,-24 3.62,-35.79 2.54,-6.15 2.7,-12.9 4.55,-19.24 1.17,-4.04 2.18,-8.16 2.04,-12.4 4.86,-20.42 13.48,-39.68 22.34,-58.63 0.28,-0.52 0.83,-1.56 1.11,-2.08 9.19,-15.59 18.32,-31.4 29.96,-45.34 2.47,-0.59 5.05,-0.25 7.57,-0.33 44.22,0.03 88.44,0.02 132.66,0.01 -0.03,-1.43 -0.09,-2.85 -0.17,-4.27 -0.37,-0.36 -1.11,-1.07 -1.48,-1.43 2.31,-2.76 1.66,-6.58 2.46,-9.88 C 607.34,116.13 629.35,86.8 659.25,73.23 m 37.02,15.73 c -4.91,1.53 -9.27,4.81 -11.96,9.2 -3.82,6.41 -3.62,14.89 0.37,21.18 4.39,7.37 13.45,11.54 21.92,10.04 9.66,-1.36 17.95,-10.43 17.21,-20.39 0.36,-7 -4,-13.32 -9.38,-17.38 -5.22,-3.69 -12.12,-3.97 -18.16,-2.65 z"
   id="path3" />
	<path
   fill="#373737"
   stroke="#373737"
   stroke-width="0.0938"
   d="m 529.85,942.68 c 23.7,-0.75 47.4301,0 71.14,-0.38 2.97,-0.07 6,-0.06 8.89,0.77 -26.66,-0.71 -53.37,0.09 -80.03,-0.39 z"
   id="path4" />
	<path
   fill="#373737"
   stroke="#373737"
   stroke-width="0.0938"
   d="m 623.8,942.84 c 0.49,-0.2401 1.45,-0.72 1.94,-0.96 8.39,0.88 16.84,0.38 25.26,0.5 120.14,-0.03 240.28,0.05 360.42,-0.03 -8.08,1.06 -16.29,0.17 -24.42,0.46 -121.06,0.02 -242.14,-0.04 -363.2,0.03 z"
   id="path5" />
	<path
   fill="#252525"
   stroke="#252525"
   stroke-width="0.0938"
   d="m 805.6,166.15 c 13.1,-0.8 26.27,-0.13 39.4,-0.35 25.66,-0.01 51.32,0.02 76.98,-0.02 1.82,0 3.64,0.13 5.47,0.37 -7.06,1.54 -14.3,0.63 -21.45,0.84 -31.01,0.05 -62.02,-0.06 -93.03,0.07 -2.49,-0.05 -4.93,-0.49 -7.37,-0.91 z"
   id="path6" />
	<path
   fill="#52261e"
   stroke="#52261e"
   stroke-width="0.0938"
   d="m 401.25,299.6 c 1.65,-9.8 3.49,-19.65 6.78,-29.06 0.14,4.24 -0.87,8.36 -2.04,12.4 -1.85,6.34 -2.01,13.09 -4.55,19.24 -0.05,-0.64 -0.14,-1.94 -0.19,-2.58 z"
   id="path7" />
	<path
   fill="#1b1b1b"
   stroke="#1b1b1b"
   stroke-width="0.0938"
   d="m 411.54,276.2 c 4.26,-1.81 8.96,-1.06 13.46,-1.13 185.05,0.07 370.1,-0.04 555.15,0.06 l 0.28,0.99 c -14.45,0.73 -28.96,0.12 -43.43,0.32 -170,0 -340,0 -510,0 -5.16,-0.03 -10.32,0.16 -15.46,-0.24 z"
   id="path8" />
	<path
   fill="#1f1f1f"
   stroke="#1f1f1f"
   stroke-width="0.0938"
   d="m 411.52,280.98 c 25.81,-0.57 51.65,-0.09 77.48,-0.25 160.33,0 320.67,0.01 481,0 4.11,0.08 8.34,-0.47 12.35,0.78 l -0.06,0.55 C 793.52,281.92 604.74,282.05 415.9701,281.99 414.44,281.88 412.98,281.4 411.52,280.98 Z"
   id="path9" />
	<path
   fill="#fdf2c9"
   stroke="#fdf2c9"
   stroke-width="0.0938"
   d="m 982.29,282.06 c 2.1,7.8 3.29,15.81 4.48,23.8 l 0.24,1 c 6.57,0.77 13.2,0.47 19.8,0.81 17.33,0.4 34.66,0.97 51.9901,1.36 10.86,0.25 21.72,0.67 32.59,0.74 14.62,0.72 29.26,0.9 43.89,1.51 1.65,53.84 3.95,107.65 5.97,161.47 0.17,9.53 0.58,19.04 0.87,28.56 0.05,8.64 0.39,17.27 0.73,25.9 0.03,1.7 0.13,3.4 0.22,5.11 0.06,14.96 0.7101,29.92 1.1001,44.87 0.38,11.79 0.5399,23.58 1.1499,35.36 0.01,0.56 0.04,1.69 0.06,2.25 0.06,9.52 0.5599,19.02 0.72,28.53 -0.07,12.77 0.4,25.54 0.6801,38.3 0.5599,29.54 1.01,59.09 1.78,88.62 0.12,7.37 0.2799,14.73 0.5499,22.1 -0.13,3.13 -0.1,6.26 0.11,9.4 0.3301,18.51 0.38,37.02 0.8,55.53 0.3199,51.23 1.39,102.47 1.63,153.71 0.4199,32.65 0.2999,65.3 0.89,97.9401 0.3999,30.45 0.1699,60.9099 0.5399,91.37 -0.33,26.23 0.2101,52.47 0.14,78.71 0.2101,104.33 0.22,208.66 0.3301,312.99 0.05,7.11 -0.24,14.24 0.35,21.34 l -0.2001,0.8301 c -52.9,0.1598 -105.8,0.07 -158.7,-0.1202 -20.54,-0.12 -41.09,-0.4601 -61.63,-0.15 -21.88,-0.38 -43.76,-0.4601 -65.64,-0.72 -4.48,-0.15 -8.96,-0.3101 -13.43,-0.12 -8.68,-0.1801 -17.36,-0.3301 -26.04,-0.38 -50.34,-1.27 -100.7,-2.0601 -151.02,-4.12 -91.49,-3.38 -182.95,-8.77 -274.03,-18.2001 -23.38,-2.1899 -46.65,-5.2999 -69.98,-7.96 -17.27,-2.38 -34.53,-4.9301 -51.82,-7.17 -2.06,-10.2 -2.35,-20.6799 -3.68,-30.99 -6.4,-56.26 -11.48,-112.67 -15.89,-169.13 -1.98,-23.29 -3.65,-46.61 -5.05,-69.95 -1.73,-20.14 -2.66,-40.3401 -4.04,-60.51 -1.3,-25.64 -2.8,-51.27 -4.16,-76.91 -0.17,-4.03 -0.43,-8.05 -0.67,-12.0699 0.04,-6.13 -0.23,-12.27 -0.76,-18.37 -1.03,-24.8201 -2.12,-49.63 -3.05,-74.4501 -0.78,-22.78 -1.57,-45.55 -2.39,-68.3199 -0.13,-7.64 -0.37,-15.27 -0.75,-22.9 -0.42,-20.89 -0.67,-41.81 -1.65,-62.68 0.04,-8.11 -0.28,-16.2 -0.45,-24.3 -0.2,-13.9901 -0.52,-27.9901 -0.89,-41.97 0.2,-8.97 -0.27,-17.94 -0.43,-26.91 -0.09,-7.36 -0.15,-14.71 -0.42,-22.06 0.07,-25.48 -0.42,-50.97 -0.66,-76.45 -0.63,-28.17 -0.2,-56.35 -1.05,-84.52 -0.07,-38.17 -0.28,-76.33 -0.4,-114.5 0.08,-12.9 0.13,-25.79 -0.17,-38.68 -0.07,-59.29 0.08,-118.59 -0.15,-177.88 8.43,0.38 16.86,0.21 25.3,0.2 25,0.03 50,0.07 75,0.06 22.15,0.1 44.31,-0.35 66.44,0.24 -2.31,11.79 -2.81,23.83 -3.62,35.79 -0.17,2.52 0.01,5.05 0.44,7.54 196.75,0.02 393.49,0.09 590.24,-0.03 1.1,-5.11 0.61,-10.37 0.36,-15.53 -0.92,-16.12 -3.33,-32.1 -6.57,-47.89 m -673.85,132.4 c -8.21,7.15 -8.01,22.62 1.82,28.28 9.49,5.46 20.91,5.73 30.77,10.23 3.34,1.26 4.87,5.34 3.34,8.53 -1.71,4.01 -6.41,5.33 -10.36,5.8 -5.35,0.44 -11.42,0.11 -15.59,-3.7 -2.47,-2.08 -3.18,-5.36 -3.99,-8.33 -4.74,-0.56 -9.54,-0.36 -14.3,-0.16 0.38,4.25 1.26,8.55 3.44,12.28 3.21,5.68 9.33,9.14 15.54,10.57 8.59,1.96 17.76,1.93 26.17,-0.81 5.97,-2 11.31,-6.45 13.32,-12.55 2.41,-7.35 0.98,-16.83 -5.83,-21.38 -9.66,-6.42 -21.96,-5.9 -32.27,-10.71 -4.61,-2.27 -3.59,-9.28 0.75,-11.25 5.14,-2.46 11.51,-2.35 16.74,-0.18 3.42,1.37 4.81,4.98 6.07,8.15 4.65,0.4 9.34,0.29 14,0.02 -0.2,-5.29 -2.2,-10.56 -6.11,-14.2 -5.77,-5.62 -14.16,-7.3 -21.95,-7.37 -7.6,-0.01 -15.76,1.51 -21.56,6.78 m 154.97,-5.81 c -8.76,2.09 -16.47,8.21 -20.27,16.4 -4.52,9.6 -4.95,20.9 -2.25,31.07 2.33,9.02 8.79,16.98 17.48,20.53 8.71,3.49 18.74,3.54 27.53,0.29 7.73,-2.93 13.95,-9.37 16.89,-17.06 3.38,-8.87 3.8,-18.79 1.52,-27.98 -1.85,-7.41 -6.1,-14.38 -12.49,-18.71 -8.19,-5.7 -18.86,-6.55 -28.41,-4.54 m 307.9,-0.46 c -8.89,1.23 -17.15,6.66 -21.56,14.52 -4.55,7.91 -5.56,17.39 -4.72,26.36 0.8799,9.27 5.03,18.62 12.78,24.13 11.85,8.27 29,8.26 40.83,-0.05 0.54,1.6 1.07,3.2 1.6,4.82 3.1,0.3 6.25,0.39 9.36,-0.08 -0.21,-12.12 0.06,-24.25 -0.14,-36.38 -9.75,-0.24 -19.5,-0.01 -29.2401,-0.14 -0.33,3.76 -0.33,7.55 -0.03,11.31 4.85,0.1 9.72,-0.32 14.57,0.23 0,2.56 0.19,5.15 -0.21,7.69 -3.94,4.86 -10.58,6.54 -16.6,6.18 -5.86,0.15 -11.63,-3.08 -14.5,-8.2 -3.45,-5.89 -3.69,-12.99 -3.16,-19.62 0.47,-5.96 3.03,-12.09 7.92,-15.74 5.85,-3.95 13.99,-3.91 20.08,-0.51 3.28,1.72 4.58,5.34 5.87,8.57 4.7401,0.3 9.5,0.23 14.26,0.02 -0.48,-7.74 -5.01,-15.1 -11.7,-19.01 -7.5799,-4.51 -16.8199,-5.33 -25.4099,-4.1 m 169.55,6.67 c -7.78,7.34 -7.36,22.37 2.31,27.95 9.68,5.61 21.51,5.54 31.42,10.59 4.85,2.22 3.77,9.54 -0.57,11.69 -5.75,3.11 -13,3.02 -19.06,0.88 -4.69,-1.71 -6.82,-6.46 -8.02,-10.93 -4.65,-0.13 -9.31,-0.2 -13.96,0.08 0.55,5.21 1.63,10.67 5.16,14.75 5.44,6.81 14.57,8.9 22.87,9.39 8.13,0.3 16.9,-0.69 23.71,-5.54 9.52,-6.57 10.72,-22.69 1.55,-30.04 -8.79,-6.26 -20.09,-6.36 -29.97,-9.9 -2.69,-0.92 -5.92,-2.61 -6.04,-5.84 -0.39,-4.4 3.81,-7.52 7.79,-8.06 4.71,-0.67 9.98,-0.76 14.12,1.94 2.67,1.67 3.55,4.87 4.82,7.57 4.66,0.05 9.34,0.28 13.99,-0.22 -0.44,-4.94 -2,-9.98 -5.6,-13.55 -5.98,-6.21 -15.06,-8.03 -23.37,-7.95 -7.49,0.2 -15.62,1.74 -21.15,7.19 m -569.79,-6.07 0.13,0.78 c -0.67,2.42 -0.62,4.94 -0.6,7.43 0.12,20.37 -0.1,40.74 0.12,61.1 4.77,0.15 9.55,-0.01 14.33,0.07 1.14,-9.95 -0.13,-20.1 0.59,-30.11 9.12,-0.06 18.25,-0.12 27.37,0.03 0.29,9.99 -0.06,19.99 0.11,29.99 4.93,0.15 9.87,0.15 14.81,0.01 0.02,-23.05 0.11,-46.1 -0.07,-69.14 -4.89,-0.22 -9.8,-0.28 -14.69,0.05 -0.35,8.94 0.3,17.92 -0.3,26.85 -9.16,-0.17 -18.33,-0.11 -27.49,-0.04 -0.04,-8.96 0.3,-17.93 -0.1,-26.89 -4.74,-0.2 -9.48,-0.11 -14.21,-0.13 m 146.15,0.24 c -0.18,23.01 -0.04,46.03 -0.0699,69.04 4.88,0.18 9.78,0.22 14.66,-0.07 0.2,-8.3 -0.31,-16.62 0.23,-24.91 6.93,-0.66 14,0.42 20.85,-1.18 6.24,-1.33 12.57,-4.62 15.51,-10.55 3.12,-6.36 3.21,-14.05 0.8,-20.66 -2.15,-5.87 -7.89,-9.69 -13.84,-10.9 -7.37,-1.41 -14.91,-0.89 -22.36,-0.97 -5.2601,0.08 -10.5401,-0.25 -15.7801,0.2 m 64.88,-0.23 0.12,0.8 c -0.61,2.76 -0.58,5.59 -0.55,8.4 0.14,20.03 -0.13,40.07 0.12,60.1 4.84,0.11 9.68,0.11 14.52,-0.03 0,-8.16 0.64,-16.42 -0.36,-24.52 6.83,-1.69 14.05,0.23 20.92,-1.53 7.55,-1.29 15.08,-6 17.34,-13.68 2.11,-7.76 1.71,-17.29 -4.2,-23.35 -5.21,-5.25 -13.03,-5.93 -20.02,-6.15 -9.29,-0.07 -18.59,0.01 -27.89,-0.04 m 64.84,0.13 c -0.14,23.05 -0.16,46.11 0,69.16 4.91,0.09 9.85,0.25 14.76,-0.12 -0.07,-22.95 0.02,-45.91 -0.03,-68.87 -4.9,-0.48 -9.83,-0.33 -14.73,-0.17 m 29.19,0.02 c -0.12,22.68 -0.17,45.37 0.04,68.05 l -0.31,1 c 4.69,0.26 9.4,0.22 14.11,0.08 -0.01,-13.47 0.28,-26.96 -0.18,-40.42 0.27,-2.3 0.27,-4.62 0.46,-6.92 9.31,15.21 18.17,30.71 27.25,46.07 0.36,0.3 1.09,0.9 1.45,1.2 4.76,0.33 9.56,0.11 14.34,0.07 0.23,-20.36 -0.01,-40.72 0.12,-61.08 0.01,-2.49 0.05,-5.01 -0.5699,-7.43 l 0.14,-0.78 c -4.02,-0.03 -8.04,0.05 -12.05,0.03 -2.17,-0.03 -0.95,2.86 -1.34,4.17 0.22,14.27 -0.4,28.59 0.31,42.83 -0.34,-0.11 -1.01,-0.34 -1.35,-0.45 -9.13,-15.53 -18.18,-31.13 -27.65,-46.46 -4.9201,-0.19 -9.8501,-0.18 -14.7701,0.04 m 175.1,0.07 c -0.2,22.94 0.24,45.9 -0.22,68.83 l 0.73,-0.11 c 6.71,0.86 13.5,0.19 20.26,0.4 8.1,-0.2 16.24,0.46 24.31,-0.38 l 0.76,0.12 c -0.19,-4.06 -0.16,-8.12 -0.15,-12.18 -10.22,-0.42 -20.46,-0.07 -30.69,-0.14 -0.48,-18.85 0.22,-37.74 -0.32,-56.59 -4.89,-0.27 -9.8,-0.29 -14.68,0.05 m 56.82,-0.22 0.14,0.8 c -0.75,2.73 -0.6,5.59 -0.6,8.4 0.14,20.02 -0.13,40.05 0.1299,60.08 4.83,0.1 9.66,0.13 14.4901,0.04 0.27,-20.04 -0.02,-40.09 0.12,-60.13 0.02,-2.81 0.07,-5.65 -0.56,-8.4 l 0.14,-0.8 c -4.62,0.02 -9.24,0.02 -13.86,0.01 m 90.35,0.35 c -0.03,4.16 -0.08,8.32 0.01,12.49 6.78,0.3 13.57,-0.22 20.35,0.26 0.02,18.73 -0.15,37.46 0.07,56.18 4.82,0.17 9.65,0.13 14.4899,0 0.2401,-18.66 0.09,-37.34 0.06,-56 6.75,-0.91 13.61,-0.09 20.41,-0.38 0.2,-4.23 0.1799,-8.47 0,-12.7 -5.92,-0.42 -11.87,-0.09 -17.8,-0.18 -12.5299,0.2 -25.0899,-0.41 -37.5899,0.33 M 632.85,593.76 c -7.44,3.03 -14.88,6.06 -22.52,8.55 -29.54,10.6 -58.98,22.36 -85.34,39.64 -4.38,4.11 -9.61,7.07 -14.44,10.59 -10.72,6.22 -19.62,14.95 -29.14,22.77 -4.43,3.58 -8.15,7.92 -12.45,11.65 -6.39,5.6 -11.89,12.1 -18.05,17.96 -3.8,3.56 -6.79,8.05 -11.27,10.84 -1.76,1.41 -3.71,-0.2 -5.03,-1.4 -3.46,-3.21 -6.21,-7.08 -9.45,-10.49 -9.71,-10.33 -19.92,-20.32 -31.77,-28.19 -1.96,-1.34 -4.66,-3.12 -6.93,-1.34 -6.57,5.09 -12.78,10.6299 -19.01,16.12 -1.4,1.42 -3.71,2.75 -3.07,5.1 2.49,2.89 5.82,4.89 8.56,7.54 9.9,9.13 18.36,19.72 26.08,30.73 -6.67,-0.37 -13.35,-0.04 -20.02,-0.14 -4.88,0.11 -9.81,-0.44 -14.66,0.39 0.05,33.21 -0.01,66.42 0.04,99.62 38.85,0.2 77.72,0.11 116.58,0.04 0.75,-6.55 0.18,-13.16 0.34,-19.73 -0.18,-26.68 0.36,-53.38 -0.26,-80.04 -1.43,-0.28 -2.85,-0.53 -4.26,-0.78 14.12,-17.6 28.48,-35.03 43.5,-51.86 1.98,-2.99 4.59,-5.44 7.42,-7.62 3.1,-2.32 4.23,-6.32 7.3,-8.65 3.35,-2.65 6.41,-5.62 9.46,-8.6 12.73,-12.46 26.7599,-23.53 41.58,-33.4 14.41,-9.66 29.79,-17.72 45.02,-25.97 2.71,-1.64 6.29,-2.27 8.01,-5.16 -2.16,0.29 -4.22,1.01 -6.22,1.83 m -9.97,178.17 c -11.49,4.2 -22.97,8.43 -34.51,12.49 -5.09,-0.76 -10.25,-0.35 -15.37,-0.42 -14.64,0.05 -29.28,-0.11 -43.91,0.07 -0.1801,3.19 -0.17,6.4 0.17,9.59 12.03,0.23 24.12,-0.65 36.12,0.51 -13.87,6.47 -27.53,13.51 -40.31,21.96 -4.4,4.08 -9.67,6.96 -14.44,10.53 -11.25,6.7 -20.74,15.82 -30.75,24.17 -10.6,9.72 -20.81,19.87 -30.88,30.15 -2.99,3.1 -5.61,6.7 -9.31,9.01 -2.62,1.64 -4.98,-1.3 -6.71,-2.93 -12.1,-14.21 -25.26,-27.82 -40.95,-38.08 -1.56,-1.13 -3.88,-2.03 -5.47,-0.47 -7.32,5.64 -14.32,11.72 -21.06,18.03 -1.64,1.14 -1.55,3.72 0.21,4.71 8.05,6.15 15.09,13.46 21.54,21.25 -7.57,1.3 -15.27,0.06 -22.88,0.76 -0.02,33.22 -0.01,66.44 -0.01,99.66 5.84,0.91 11.77,0.23 17.64,0.42 33.04,-0.13 66.08,0.28 99.11,-0.2 0.46,-21.04 0.05,-42.1 0.19,-63.14 -0.28,-9.12 0.61,-18.31 -0.51,-27.38 9.48,-12.39 19.74,-24.15 29.8,-36.06 3.55,-4.75 8.23,-8.54 11.56,-13.46 1.61,-2.38 4.14,-3.86 6.21,-5.77 2.54,-2.49 3.86,-6.01 6.75,-8.17 6.43,-5.24 11.99,-11.43 18.31,-16.79 11.92,-10.69 24.83,-20.28 38.4,-28.75 139.93,0.02 279.86,0 419.78,0.01 0.15,-3.15 0.16,-6.3 0.06,-9.43 -4.22,-0.39 -8.44,-0.19 -12.66,-0.2 -128,0 -256.01,0 -384.02,0 -2.11,-0.05 -4.2,-0.25 -6.27,-0.58 9.36,-4.86 18.38,-10.36 27.92,-14.86 1.16,-0.47 1.77,-1.57 2.47,-2.52 -5.66,1.19 -10.8,3.98 -16.22,5.89 M 529.1,933.89 c -0.16,2.94 -0.16,5.89 -0.01,8.84 l 0.7599,-0.05 c 26.66,0.48 53.37,-0.32 80.03,0.39 0.35,0.12 1.05,0.35 1.41,0.47 -25.79,9.47 -51.71,19.2 -75.36,33.37 -5.17,3.09 -10.62,5.84 -14.96,10.09 -8.78,6.22 -18.13,11.64 -26.34,18.65 -7.55,6.78 -15.73,12.86 -22.72,20.26 -8.45,7.2999 -15.77,15.74 -23.8,23.49 -6.46,0 -12.92,-0.12 -19.38,0.09 -10.98,-12.12 -22.61,-23.9299 -36.41,-32.85 -1.54,-1.1 -3.77,-2.09 -5.52,-0.85 -7.41,5.56 -14.26,11.85 -21.22,17.96 -1.59,1.02 -1.66,3.5 -0.08,4.59 3.95,3.54 8.12,6.8401 11.8,10.6901 -4.3,0.4 -8.62,0.3199 -12.92,0.36 -0.02,33.41 -0.04,66.8199 0.01,100.23 38.83,0.07 77.67,0.01 116.5,0.03 0.27,-1.87 0.47,-3.76 0.46,-5.64 -0.1,-14.33 -0.03,-28.67 -0.05,-43.01 -0.22,-10.37 0.48,-20.78 -0.4,-31.13 9.28,-11.96 19.12,-23.46 28.96,-34.97 3.71,-4.9301 8.48,-8.97 12.04,-14.03 2.46,-3.52 6.7599,-5.28 8.92,-9.07 2.28,-4.27 6.63,-6.69 9.88,-10.11 24.07,-24.2 52.69,-43.52 83.1,-58.85 121.06,-0.07 242.14,-0.01 363.2,-0.03 8.13,-0.29 16.34,0.6 24.42,-0.46 0.13,-2.83 0.11,-5.66 -0.16,-8.46 -4.75,-0.39 -9.51,-0.18 -14.26,-0.2 -113.67,0 -227.33,0 -340.99,0.01 -5.55,0.23 -11.19,-0.55 -16.68,0.37 -1.4,-0.33 -2.76,-0.3 -4.08,0.09 -3.07,-0.46 -6.16,-0.56 -9.25,-0.5 -32.3,0.2199 -64.61,-0.2601 -96.9,0.2299 m 0.03,156.21 c -0.23,3.1901 -0.22,6.41 0.06,9.61 160.81,-0.04 321.63,0.07 482.44,-0.05 0.12,-3.16 0.13,-6.3201 0.02,-9.4601 -3.55,-0.33 -7.11,-0.26 -10.65,-0.23 -106.67,0.01 -213.33,0.01 -320,0.01 -50.62,0.1 -101.26,-0.18 -151.87,0.12 m -164.75,108.27 c -0.02,33.41 -0.06,66.8199 0.02,100.23 38.82,0.01 77.64,-0.04 116.46,0.03 0.7,-4.1801 0.42,-8.4301 0.44,-12.64 0.01,-19.33 -0.01,-38.66 0,-57.99 -0.27,-9.88 0.56,-19.8101 -0.43,-29.63 -38.83,-0.01 -77.66,-0.03 -116.49,0 m 164.73,40.51 c -0.2,3.25 -0.2,6.52 0.14,9.78 160.79,-0.08 321.58,-0.02 482.36,-0.03 0.17,-3.17 0.13,-6.34 0.02,-9.49 -3.47,-0.9301 -7.1,-0.4 -10.63,-0.48 -132.67,0.02 -265.33,-0.01 -398,0.01 -24.63,0.1401 -49.27,-0.3 -73.89,0.21 m -164.73,108.5 c -0.06,33.46 0.03,66.9399 -0.05,100.41 8.21,0.3999 16.45,0.07 24.67,0.1799 30.31,-0.07 60.62,0.09 90.92,-0.07 l 1.09,0.05 c 0.14,-1.6699 0.28,-3.3099 0.31,-4.95 -0.09,-26.66 -0.01,-53.33 -0.04,-79.99 -0.05,-4.49 0.35,-9.01 -0.55,-13.4301 0.05,-0.5499 0.16,-1.6599 0.21,-2.22 -38.85,0.02 -77.71,-0.01 -116.56,0.02 m 164.78,40.72 c -0.25,3.1801 -0.2599,6.39 0.06,9.5801 160.8,-0.05 321.6,0.03 482.4,-0.03 0.14,-3.16 0.14,-6.3 0.02,-9.4401 -9.54,-0.62 -19.1,-0.09 -28.65,-0.25 -100.33,-0.01 -200.66,0 -300.99,0 -50.94,0.09 -101.9,-0.19 -152.84,0.14 z"
   id="path10" />
	<path
   fill="#76200f"
   stroke="#76200f"
   stroke-width="0.0938"
   d="m 986.77,305.86 c 8.12,0.58 16.28,-0.08 24.4,0.42 -1.41,0.61 -2.85,1.15 -4.36,1.39 -6.6,-0.34 -13.23,-0.04 -19.8,-0.81 z"
   id="path11" />
	<path
   fill="#418708"
   stroke="#418708"
   stroke-width="0.0938"
   d="m 308.44,414.46 c 5.8,-5.27 13.96,-6.79 21.56,-6.78 7.79,0.07 16.18,1.75 21.95,7.37 3.91,3.64 5.91,8.91 6.11,14.2 -4.66,0.27 -9.35,0.38 -14,-0.02 -1.26,-3.17 -2.65,-6.78 -6.07,-8.15 -5.23,-2.17 -11.6,-2.28 -16.74,0.18 -4.34,1.97 -5.36,8.98 -0.75,11.25 10.31,4.81 22.61,4.29 32.27,10.71 6.81,4.55 8.24,14.03 5.83,21.38 -2.01,6.1 -7.35,10.55 -13.32,12.55 -8.41,2.74 -17.58,2.77 -26.17,0.81 -6.21,-1.43 -12.33,-4.89 -15.54,-10.57 -2.18,-3.73 -3.06,-8.03 -3.44,-12.28 4.76,-0.2 9.56,-0.4 14.3,0.16 0.81,2.97 1.52,6.25 3.99,8.33 4.17,3.81 10.24,4.14 15.59,3.7 3.95,-0.47 8.65,-1.79 10.36,-5.8 1.53,-3.19 0,-7.27 -3.34,-8.53 -9.86,-4.5 -21.28,-4.77 -30.77,-10.23 -9.83,-5.66 -10.03,-21.13 -1.82,-28.28 z"
   id="path12" />
	<path
   fill="#418708"
   stroke="#418708"
   stroke-width="0.0938"
   d="m 463.41,408.65 c 9.55,-2.01 20.22,-1.16 28.41,4.54 6.39,4.33 10.64,11.3 12.49,18.71 2.28,9.19 1.86,19.11 -1.52,27.98 -2.94,7.69 -9.16,14.13 -16.89,17.06 -8.79,3.25 -18.82,3.2 -27.53,-0.29 -8.69,-3.55 -15.15,-11.51 -17.48,-20.53 -2.7,-10.17 -2.27,-21.47 2.25,-31.07 3.8,-8.19 11.51,-14.31 20.27,-16.4 m 5.98,11.88 c -7.31,1.2 -12.54,7.82 -13.92,14.82 -1.89,8.82 -1.25,19.18 4.96,26.25 5.5,6.46 16.33,7.03 22.66,1.47 5.16,-4.41 7.31,-11.48 7.39,-18.09 0.22,-6.89 -0.99,-14.39 -5.89,-19.59 -3.7,-4.24 -9.76,-5.9 -15.2,-4.86 z"
   id="path13" />
	<path
   fill="#418708"
   stroke="#418708"
   stroke-width="0.0938"
   d="m 771.31,408.19 c 8.59,-1.23 17.83,-0.41 25.41,4.1 6.69,3.91 11.22,11.27 11.7,19.01 -4.76,0.21 -9.52,0.28 -14.26,-0.02 -1.29,-3.23 -2.59,-6.85 -5.87,-8.57 -6.09,-3.4 -14.23,-3.44 -20.08,0.51 -4.89,3.65 -7.45,9.78 -7.92,15.74 -0.53,6.63 -0.29,13.73 3.16,19.62 2.87,5.12 8.64,8.35 14.5,8.2 6.02,0.36 12.66,-1.32 16.6,-6.18 0.4,-2.54 0.21,-5.13 0.21,-7.69 -4.85,-0.55 -9.72,-0.13 -14.57,-0.23 -0.3,-3.76 -0.3,-7.55 0.03,-11.31 9.7401,0.13 19.4901,-0.1 29.2401,0.14 0.2,12.13 -0.07,24.26 0.14,36.38 -3.11,0.47 -6.2599,0.38 -9.36,0.08 -0.53,-1.62 -1.06,-3.22 -1.6,-4.82 -11.83,8.31 -28.98,8.32 -40.83,0.05 -7.75,-5.51 -11.9,-14.86 -12.78,-24.13 -0.84,-8.97 0.17,-18.45 4.72,-26.36 4.4099,-7.86 12.6699,-13.29 21.5599,-14.52 z"
   id="path14" />
	<path
   fill="#418708"
   stroke="#418708"
   stroke-width="0.0938"
   d="m 646.94,408.93 c 4.9,-0.16 9.83,-0.31 14.73,0.17 0.05,22.96 -0.04,45.92 0.03,68.87 -4.91,0.37 -9.85,0.21 -14.76,0.12 -0.16,-23.05 -0.14,-46.11 0,-69.16 z"
   id="path15" />
	<path
   fill="#418708"
   stroke="#418708"
   stroke-width="0.0938"
   d="m 998.4,409.15 c 12.5,-0.74 25.06,-0.13 37.59,-0.33 5.9301,0.09 11.88,-0.24 17.8,0.18 0.1799,4.23 0.2,8.47 0,12.7 -6.8,0.29 -13.66,-0.53 -20.41,0.38 0.03,18.66 0.1801,37.34 -0.06,56 -4.84,0.13 -9.6699,0.17 -14.4899,0 -0.22,-18.72 -0.05,-37.45 -0.07,-56.18 -6.78,-0.48 -13.57,0.04 -20.35,-0.26 -0.09,-4.17 -0.04,-8.33 -0.01,-12.49 z"
   id="path16" />
	<path
   fill="#418709"
   stroke="#418709"
   stroke-width="0.0938"
   d="m 940.86,414.86 c 5.53,-5.45 13.66,-6.99 21.15,-7.19 8.31,-0.08 17.39,1.74 23.37,7.95 3.6,3.57 5.16,8.61 5.6,13.55 -4.65,0.5 -9.33,0.27 -13.99,0.22 -1.27,-2.7 -2.15,-5.9 -4.82,-7.57 -4.14,-2.7 -9.41,-2.61 -14.12,-1.94 -3.98,0.54 -8.18,3.66 -7.79,8.06 0.12,3.23 3.35,4.92 6.04,5.84 9.88,3.54 21.18,3.64 29.97,9.9 9.17,7.35 7.97,23.47 -1.55,30.04 -6.81,4.85 -15.58,5.84 -23.71,5.54 -8.3,-0.49 -17.43,-2.58 -22.87,-9.39 -3.53,-4.08 -4.61,-9.54 -5.16,-14.75 4.65,-0.28 9.31,-0.21 13.96,-0.08 1.2,4.47 3.33,9.22 8.02,10.93 6.06,2.14 13.31,2.23 19.06,-0.88 4.34,-2.15 5.42,-9.47 0.57,-11.69 -9.91,-5.05 -21.7401,-4.98 -31.42,-10.59 -9.67,-5.58 -10.09,-20.61 -2.31,-27.95 z"
   id="path17" />
	<path
   fill="#418709"
   stroke="#418709"
   stroke-width="0.0938"
   d="m 517.22,409.03 c 5.2401,-0.45 10.52,-0.12 15.78,-0.2 7.45,0.08 14.99,-0.44 22.36,0.97 5.95,1.21 11.69,5.03 13.84,10.9 2.41,6.61 2.32,14.3 -0.8,20.66 -2.94,5.93 -9.27,9.22 -15.51,10.55 -6.85,1.6 -13.92,0.52 -20.85,1.18 -0.54,8.29 -0.03,16.61 -0.23,24.91 -4.88,0.29 -9.78,0.25 -14.66,0.07 0.03,-23.01 -0.11,-46.03 0.07,-69.04 m 14.67,11.88 c -0.14,6.66 -0.18,13.32 0.06,19.98 5.78,0.17 11.7,0.57 17.39,-0.68 8.46,-1.98 8.83,-16.68 0.3,-18.73 -5.83,-1.11 -11.84,-0.68 -17.75,-0.57 z"
   id="path18" />
	<path
   fill="#418808"
   stroke="#418808"
   stroke-width="0.0938"
   d="m 371.07,408.79 c 4.73,0.02 9.47,-0.07 14.21,0.13 0.4,8.96 0.06,17.93 0.1,26.89 l 0.03,0.87 c 9.09,0.49 18.23,0.47 27.32,0.07 l 0.14,-0.9 c 0.6,-8.93 -0.05,-17.91 0.3,-26.85 4.89,-0.33 9.8,-0.27 14.69,-0.05 0.18,23.04 0.09,46.09 0.07,69.14 -4.94,0.14 -9.88,0.14 -14.81,-0.01 -0.17,-10 0.18,-20 -0.11,-29.99 -9.12,-0.15 -18.25,-0.09 -27.37,-0.03 -0.72,10.01 0.55,20.16 -0.59,30.11 -1.1,-9.78 0.46,-19.68 -0.73,-29.41 -0.72,9.33 0.41,18.71 -0.39,28.04 -3.93,0.43 -7.89,0.45 -11.82,0.05 -0.45,-20.28 -0.1,-40.58 -0.14,-60.87 -0.08,-2.16 -0.4,-4.29 -0.77,-6.41 z"
   id="path19" />
	<path
   fill="#418808"
   stroke="#418808"
   stroke-width="0.0938"
   d="m 908.05,408.8 c 4.62,0.01 9.24,0.01 13.86,-0.01 l -0.14,0.8 c -1.59,7.38 -0.47,14.94 -0.75,22.4 -0.21,14.9 0.37,29.82 -0.18,44.71 -3.89,0.38 -7.8,0.37 -11.67,-0.03 -0.59,-6.21 -0.21,-12.45 -0.28,-18.68 0.04,-13.33 -0.09,-26.67 0.11,-40 0.02,-2.83 -0.31,-5.63 -0.81,-8.39 z"
   id="path20" />
	<path
   fill="#418808"
   stroke="#418808"
   stroke-width="0.0938"
   d="m 632.85,593.76 c 2,-0.82 4.06,-1.54 6.22,-1.83 -1.72,2.89 -5.3,3.52 -8.01,5.16 -15.23,8.25 -30.61,16.31 -45.02,25.97 -14.82,9.87 -28.85,20.94 -41.58,33.4 -3.05,2.98 -6.11,5.95 -9.46,8.6 -3.07,2.33 -4.2,6.33 -7.3,8.65 -2.83,2.18 -5.44,4.63 -7.42,7.62 -15.02,16.83 -29.38,34.26 -43.5,51.86 -8.91,11.38 -17.72,22.87 -25.66,34.96 -2.54,3.66 -4.36,8.45 -8.9,10.06 -4.96,2.05 -9.91,4.18 -15.08,5.62 -4.4,-5.14 -6,-11.94 -9.05,-17.87 -5.59,-11.13 -11.88,-21.95 -19.07,-32.13 -7.72,-11.01 -16.18,-21.6 -26.08,-30.73 -2.74,-2.65 -6.07,-4.65 -8.56,-7.54 -0.64,-2.35 1.67,-3.68 3.07,-5.1 6.23,-5.4901 12.44,-11.03 19.01,-16.12 2.27,-1.78 4.97,0 6.93,1.34 11.85,7.87 22.06,17.86 31.77,28.19 3.24,3.41 5.99,7.28 9.45,10.49 1.32,1.2 3.27,2.81 5.03,1.4 4.48,-2.79 7.47,-7.28 11.27,-10.84 6.16,-5.86 11.66,-12.36 18.05,-17.96 4.3,-3.73 8.02,-8.07 12.45,-11.65 9.52,-7.82 18.42,-16.55 29.14,-22.77 4.83,-3.52 10.06,-6.48 14.44,-10.59 26.36,-17.28 55.8,-29.04 85.34,-39.64 7.64,-2.49 15.08,-5.52 22.52,-8.55 z"
   id="path21" />
	<path
   fill="#418808"
   stroke="#418808"
   stroke-width="0.0938"
   d="m 622.88,771.93 c 5.42,-1.91 10.56,-4.7 16.22,-5.89 -0.7,0.95 -1.31,2.05 -2.47,2.52 -9.54,4.5 -18.56,10 -27.92,14.86 -5.82,3.08 -11.25,6.82 -16.89,10.2 -13.57,8.47 -26.48,18.06 -38.4,28.75 -6.32,5.36 -11.88,11.55 -18.31,16.79 -2.89,2.16 -4.21,5.6801 -6.75,8.17 -2.07,1.91 -4.6,3.39 -6.21,5.77 -3.33,4.92 -8.01,8.71 -11.56,13.46 -10.06,11.91 -20.32,23.67 -29.8,36.06 -10.11,12.09 -19.49,24.78 -28.39,37.78 -3.17,4.36 -5.23,10.25 -10.69,12.27 -4.98,1.92 -9.83,4.59 -15.22,5.1 -4.05,-6.43 -6.25,-13.77 -9.78,-20.46 -8.33,-15.84 -18.03,-31.03 -29.46,-44.81 -6.45,-7.79 -13.49,-15.1 -21.54,-21.25 -1.76,-0.99 -1.85,-3.57 -0.21,-4.71 6.74,-6.31 13.74,-12.39 21.06,-18.03 1.59,-1.56 3.91,-0.66 5.47,0.47 15.69,10.26 28.85,23.87 40.95,38.08 1.73,1.63 4.09,4.57 6.71,2.93 3.7,-2.31 6.32,-5.91 9.31,-9.01 10.07,-10.28 20.28,-20.43 30.88,-30.15 10.01,-8.35 19.5,-17.47 30.75,-24.17 4.77,-3.5699 10.04,-6.45 14.44,-10.53 12.78,-8.45 26.44,-15.49 40.31,-21.96 7.63,-3.33 15.47,-6.16 22.99,-9.75 11.54,-4.06 23.02,-8.29 34.51,-12.49 z"
   id="path22" />
	<path
   fill="#418808"
   stroke="#418808"
   stroke-width="0.0938"
   d="m 635.25,934.16 c 1.32,-0.39 2.68,-0.42 4.08,-0.09 -4.44,2.76 -9.09,5.15 -13.59,7.81 -0.49,0.24 -1.45,0.72 -1.94,0.96 -30.41,15.33 -59.03,34.65 -83.1,58.85 -3.25,3.42 -7.6,5.84 -9.88,10.11 -2.16,3.79 -6.46,5.55 -8.92,9.07 -3.56,5.0601 -8.33,9.1 -12.04,14.03 -9.84,11.51 -19.68,23.01 -28.96,34.97 -11.95,14.5699 -23.38,29.62 -33.43,45.5699 -1.41,2.3 -3.63,3.9501 -6.14,4.8701 -4.74,1.84 -9.44,3.83 -14.36,5.1399 -4.68,-6.38 -6.63,-14.1899 -10.39,-21.0599 -10.73,-19.97 -23.29,-39.1801 -39.28,-55.36 -3.68,-3.85 -7.85,-7.15 -11.8,-10.6901 -1.58,-1.09 -1.51,-3.5699 0.08,-4.59 6.96,-6.11 13.81,-12.4 21.22,-17.96 1.75,-1.24 3.98,-0.25 5.52,0.85 13.8,8.92 25.43,20.73 36.41,32.85 2.84,2.98 5.21,7.08 9.35,8.33 4.39,-1.0699 6.88,-5.49 10.03,-8.4199 8.03,-7.75 15.35,-16.1901 23.8,-23.49 6.99,-7.4 15.17,-13.48 22.72,-20.26 8.21,-7.01 17.56,-12.4301 26.34,-18.65 4.34,-4.25 9.79,-7 14.96,-10.09 23.65,-14.17 49.57,-23.9 75.36,-33.37 8.22,-2.49 16.13,-5.88 23.96,-9.38 z"
   id="path23" />
	<path
   fill="#418809"
   stroke="#418809"
   stroke-width="0.0938"
   d="m 582.1,408.8 c 9.3,0.05 18.6,-0.03 27.89,0.04 6.99,0.22 14.81,0.9 20.02,6.15 5.91,6.06 6.31,15.59 4.2,23.35 -2.26,7.68 -9.79,12.39 -17.34,13.68 -6.87,1.76 -14.09,-0.16 -20.92,1.53 -2.33,7.53 -0.12,15.5 -1.13,23.21 -3.89,0.38 -7.81,0.36 -11.7,-0.03 -0.57,-14.9 -0.04,-29.82 -0.2,-44.73 -0.23,-7.46 0.61,-15 -0.7,-22.4 l -0.12,-0.8 m 14.3,12.33 c 0.0699,6.56 0.0699,13.11 0,19.67 5.71,0.37 11.53,0.57 17.19,-0.48 8.79,-1.75 9.24,-17.18 0.28,-18.92 -5.76,-0.87 -11.68,-0.85 -17.47,-0.27 z"
   id="path24" />
	<path
   fill="#418809"
   stroke="#418809"
   stroke-width="0.0938"
   d="m 676.13,408.95 c 4.92,-0.22 9.85,-0.23 14.77,-0.04 9.47,15.33 18.52,30.93 27.65,46.46 0.34,0.11 1.01,0.34 1.35,0.45 l 0.81,0.3 c 0.5,-15.76 0.03,-31.54 0.22,-47.3 4.01,0.02 8.03,-0.06 12.05,-0.03 l -0.14,0.78 c -0.4,2.12 -0.7401,4.25 -0.8,6.41 -0.03,20.31 0.29,40.64 -0.14,60.94 -4.8,0.4 -9.61,-0.01 -14.4,-0.11 -9.08,-15.36 -17.94,-30.86 -27.25,-46.07 -0.19,2.3 -0.19,4.62 -0.46,6.92 -1.81,12.94 0.01,26.06 -0.97,39.05 -4.22,0.37 -8.44,0.2 -12.65,0.29 -0.21,-22.68 -0.16,-45.37 -0.04,-68.05 z"
   id="path25" />
	<path
   fill="#418809"
   stroke="#418809"
   stroke-width="0.0938"
   d="m 851.23,409.02 c 4.88,-0.34 9.79,-0.32 14.68,-0.05 0.54,18.85 -0.16,37.74 0.32,56.59 10.23,0.07 20.47,-0.28 30.69,0.14 -0.01,4.06 -0.04,8.12 0.15,12.18 l -0.76,-0.12 c -7.36,-1.38 -14.88,-0.43 -22.31,-0.68 -7.42,0.25 -14.92,-0.71 -22.26,0.66 l -0.73,0.11 c 0.46,-22.93 0.02,-45.89 0.22,-68.83 z"
   id="path26" />
	<path
   fill="#2d6902"
   stroke="#2d6902"
   stroke-width="0.0938"
   d="m 719.59,412.99 c 0.39,-1.31 -0.83,-4.2 1.34,-4.17 -0.19,15.76 0.28,31.54 -0.22,47.3 l -0.81,-0.3 c -0.71,-14.24 -0.09,-28.56 -0.31,-42.83 z"
   id="path27" />
	<path
   fill="#316702"
   stroke="#316702"
   stroke-width="0.0938"
   d="m 371.2,409.57 c 0.37,2.12 0.69,4.25 0.77,6.41 0.04,20.29 -0.31,40.59 0.14,60.87 3.93,0.4 7.89,0.38 11.82,-0.05 0.8,-9.33 -0.33,-18.71 0.39,-28.04 1.19,9.73 -0.37,19.63 0.73,29.41 -4.78,-0.08 -9.56,0.08 -14.33,-0.07 -0.22,-20.36 0,-40.73 -0.12,-61.1 -0.02,-2.49 -0.07,-5.01 0.6,-7.43 z"
   id="path28" />
	<path
   fill="#316c06"
   stroke="#316c06"
   stroke-width="0.0938"
   d="m 582.22,409.6 c 1.3101,7.4 0.47,14.94 0.7,22.4 0.16,14.91 -0.37,29.83 0.2,44.73 3.89,0.39 7.81,0.41 11.7,0.03 1.01,-7.71 -1.2,-15.68 1.13,-23.21 1,8.1 0.36,16.36 0.36,24.52 -4.84,0.14 -9.68,0.14 -14.52,0.03 -0.25,-20.03 0.02,-40.07 -0.12,-60.1 -0.03,-2.81 -0.06,-5.64 0.55,-8.4 z"
   id="path29" />
	<path
   fill="#2f6701"
   stroke="#2f6701"
   stroke-width="0.0938"
   d="m 732.04,415.98 c 0.06,-2.16 0.4,-4.29 0.8,-6.41 0.62,2.42 0.58,4.94 0.5699,7.43 -0.1299,20.36 0.11,40.72 -0.12,61.08 -4.78,0.04 -9.58,0.26 -14.34,-0.07 -0.36,-0.3 -1.09,-0.9 -1.45,-1.2 4.79,0.1 9.6,0.51 14.4,0.11 0.4301,-20.3 0.1101,-40.63 0.1401,-60.94 z"
   id="path30" />
	<path
   fill="#336f06"
   stroke="#336f06"
   stroke-width="0.0938"
   d="m 908.19,409.6 c 0.5,2.76 0.83,5.56 0.81,8.39 -0.2,13.33 -0.07,26.67 -0.11,40 0.07,6.23 -0.31,12.47 0.28,18.68 3.87,0.4 7.78,0.41 11.67,0.03 0.55,-14.89 -0.03,-29.81 0.18,-44.71 0.28,-7.46 -0.84,-15.02 0.75,-22.4 0.63,2.75 0.58,5.59 0.56,8.4 -0.14,20.04 0.15,40.09 -0.12,60.13 -4.83,0.09 -9.66,0.06 -14.4901,-0.04 -0.2599,-20.03 0.01,-40.06 -0.1299,-60.08 0,-2.81 -0.15,-5.67 0.6,-8.4 z"
   id="path31" />
	<path
   fill="#fcf3c9"
   stroke="#fcf3c9"
   stroke-width="0.0938"
   d="m 469.39,420.53 c 5.44,-1.04 11.5,0.62 15.2,4.86 4.9,5.2 6.11,12.7 5.89,19.59 -0.08,6.61 -2.23,13.68 -7.39,18.09 -6.33,5.56 -17.16,4.99 -22.66,-1.47 -6.21,-7.07 -6.85,-17.43 -4.96,-26.25 1.38,-7 6.61,-13.62 13.92,-14.82 z"
   id="path32" />
	<path
   fill="#fcf3c9"
   stroke="#fcf3c9"
   stroke-width="0.0938"
   d="m 531.89,420.91 c 5.91,-0.11 11.92,-0.54 17.75,0.57 8.53,2.05 8.16,16.75 -0.3,18.73 -5.69,1.25 -11.61,0.85 -17.39,0.68 -0.24,-6.66 -0.2,-13.32 -0.06,-19.98 z"
   id="path33" />
	<path
   fill="#fbf3c9"
   stroke="#fbf3c9"
   stroke-width="0.0938"
   d="m 596.4,421.13 c 5.79,-0.58 11.71,-0.6 17.47,0.27 8.96,1.74 8.51,17.17 -0.28,18.92 -5.66,1.05 -11.48,0.85 -17.19,0.48 0.07,-6.56 0.07,-13.11 0,-19.67 z"
   id="path34" />
	<path
   fill="#2f6704"
   stroke="#2f6704"
   stroke-width="0.38542"
   d="m 282.59595,398.71338 c 267.11929,-6.50642 534.53016,-12.08336 801.64945,3.71795 l -4.0826,83.65394 c -265.07795,37.17952 -531.61403,39.0385 -796.69201,-6.50643 z"
   id="path35"
   style="fill:#fdf2c9;fill-opacity:1;stroke-width:0;stroke-dasharray:none" />
	<path
   fill="#336a06"
   stroke="#336a06"
   stroke-width="0.0938"
   d="m 688.82,476.71 c 0.98,-12.99 -0.84,-26.11 0.97,-39.05 0.46,13.46 0.17,26.95 0.18,40.42 -4.71,0.14 -9.42,0.18 -14.11,-0.08 l 0.31,-1 c 4.21,-0.09 8.43,0.08 12.65,-0.29 z"
   id="path36" />
	<path
   fill="#2c6404"
   stroke="#2c6404"
   stroke-width="0.0938"
   d="m 851.74,477.74 c 7.34,-1.37 14.84,-0.41 22.26,-0.66 7.43,0.25 14.95,-0.7 22.31,0.68 -8.07,0.84 -16.21,0.18 -24.31,0.38 -6.76,-0.21 -13.55,0.46 -20.26,-0.4 z"
   id="path37" />
	<path
   fill="#7d230f"
   stroke="#7d230f"
   stroke-width="0.0938"
   d="m 1143.35,511.84 c 0.9401,6.75 1.11,13.77 -0.28,20.48 -0.09,-1.71 -0.1899,-3.41 -0.22,-5.11 0.35,-5.12 0.23,-10.25 0.5,-15.37 z"
   id="path38" />
	<path
   fill="#651805"
   stroke="#651805"
   stroke-width="0.0938"
   d="m 234.08,517.74 0.94,0.5 c 0.12,38.17 0.33,76.33 0.4,114.5 -0.25,4.15 -0.58,8.3 -1.01,12.44 -0.59,-9.21 0.44,-18.45 -0.58,-27.64 0.21,-2.94 0.35,-5.87 0.42,-8.8 0.43,-7.59 -0.53,-15.16 -0.31,-22.74 0.48,-11.67 -0.28,-23.34 -0.2,-35 -0.12,-11.09 0.63,-22.18 0.34,-33.26 z"
   id="path39" />
	<path
   fill="#852519"
   stroke="#852519"
   stroke-width="0.0938"
   d="m 1144.17,577.19 c 0.1599,-2.22 0.7999,-4.36 1.5399,-6.45 0.3401,3.82 0.5901,7.67 1.3,11.45 1.13,4.64 -1.55,9.14 -0.84,13.81 0.07,5.48 2.26,11.52 -0.8501,16.55 -0.6098,-11.78 -0.7698,-23.57 -1.1498,-35.36 z"
   id="path40" />
	<path
   fill="#eb9528"
   stroke="#eb9528"
   stroke-width="0.0938"
   d="m 451.12,768.15 c 7.94,-12.09 16.75,-23.58 25.66,-34.96 1.41,0.25 2.83,0.5 4.26,0.78 0.62,26.66 0.08,53.36 0.26,80.04 -0.16,6.57 0.41,13.18 -0.34,19.73 -38.86,0.07 -77.73,0.16 -116.58,-0.04 -0.05,-33.2 0.01,-66.41 -0.04,-99.62 4.85,-0.83 9.78,-0.28 14.66,-0.39 6.67,0.1 13.35,-0.23 20.02,0.14 7.19,10.18 13.48,21 19.07,32.13 3.05,5.93 4.65,12.73 9.05,17.87 5.17,-1.44 10.12,-3.57 15.08,-5.62 4.54,-1.61 6.36,-6.4 8.9,-10.06 z"
   id="path41" />
	<path
   fill="#eb9528"
   stroke="#eb9528"
   stroke-width="0.0938"
   d="m 387.25,892.5 c 11.43,13.78 21.13,28.97 29.46,44.81 3.53,6.69 5.73,14.03 9.78,20.46 5.39,-0.51 10.24,-3.18 15.22,-5.1 5.46,-2.02 7.52,-7.91 10.69,-12.27 8.9,-13 18.28,-25.69 28.39,-37.78 1.12,9.07 0.23,18.26 0.51,27.38 -0.14,21.04 0.27,42.1 -0.19,63.14 -33.03,0.48 -66.07,0.07 -99.11,0.2 -5.87,-0.19 -11.8,0.49 -17.64,-0.42 0,-33.22 -0.01,-66.44 0.01,-99.66 7.61,-0.7 15.31,0.54 22.88,-0.76 z"
   id="path42" />
	<path
   fill="#eb9528"
   stroke="#eb9528"
   stroke-width="0.0938"
   d="m 364.38,1049.39 c 4.3,-0.04 8.62,0.04 12.92,-0.36 15.99,16.1799 28.55,35.39 39.28,55.36 3.76,6.87 5.71,14.6799 10.39,21.0599 4.92,-1.3099 9.62,-3.2999 14.36,-5.1399 2.51,-0.92 4.73,-2.5701 6.14,-4.8701 10.05,-15.95 21.48,-31 33.43,-45.5699 0.88,10.35 0.18,20.76 0.4,31.13 0.02,14.34 -0.05,28.6801 0.05,43.01 0.01,1.88 -0.19,3.77 -0.46,5.64 -38.83,-0.02 -77.67,0.04 -116.5,-0.03 -0.05,-33.41 -0.03,-66.82 -0.01,-100.23 z"
   id="path43" />
	<path
   fill="#eb9528"
   stroke="#eb9528"
   stroke-width="0.0938"
   d="m 364.38,1198.37 c 38.83,-0.03 77.66,-0.01 116.49,0 0.99,9.8199 0.16,19.75 0.43,29.63 -0.01,19.33 0.01,38.66 0,57.99 -0.02,4.21 0.26,8.46 -0.44,12.64 -38.82,-0.07 -77.64,-0.02 -116.46,-0.03 -0.08,-33.4101 -0.04,-66.82 -0.02,-100.23 z"
   id="path44" />
	<path
   fill="#eb9528"
   stroke="#eb9528"
   stroke-width="0.0938"
   d="m 364.38,1347.38 c 38.85,-0.03 77.71,0 116.56,-0.02 -0.05,0.5601 -0.16,1.67 -0.21,2.22 -1.38,6.7301 -0.66,13.6001 -0.78,20.42 -0.02,25.96 0.03,51.9301 -0.03,77.9 -30.3,0.16 -60.61,0 -90.92,0.07 -8.22,-0.11 -16.46,0.22 -24.67,-0.1799 0.08,-33.4701 -0.01,-66.95 0.05,-100.41 z"
   id="path45" />
	<path
   fill="#7a230e"
   stroke="#7a230e"
   stroke-width="0.0938"
   d="m 1149.5,762.7 c 0.86,6.64 0.04,13.35 0.61,20.01 0.16,3.24 -0.25,6.48 -1,9.64 -0.27,-7.37 -0.4299,-14.73 -0.5499,-22.1 0.1298,-2.54 0.5,-5.05 0.9399,-7.55 z"
   id="path46" />
	<path
   fill="#929190"
   stroke="#929190"
   stroke-width="0.0938"
   d="m 591.82,793.62 c 5.64,-3.38 11.07,-7.12 16.89,-10.2 2.07,0.33 4.16,0.53 6.27,0.58 128.01,0 256.02,0 384.02,0 4.22,0.01 8.44,-0.19 12.66,0.2 0.1,3.13 0.09,6.28 -0.06,9.43 -139.92,-0.01 -279.85,0.01 -419.78,-0.01 z"
   id="path47" />
	<path
   fill="#929190"
   stroke="#929190"
   stroke-width="0.0938"
   d="m 529.11,1238.88 c 24.62,-0.51 49.26,-0.07 73.89,-0.21 132.67,-0.02 265.33,0.01 398,-0.01 3.53,0.08 7.16,-0.4501 10.63,0.48 0.11,3.15 0.15,6.3199 -0.02,9.49 -160.78,0.01 -321.57,-0.05 -482.36,0.03 -0.34,-3.26 -0.34,-6.53 -0.14,-9.78 z"
   id="path48" />
	<path
   fill="#919191"
   stroke="#919191"
   stroke-width="0.0938"
   d="m 529.09,784.07 c 14.6299,-0.18 29.27,-0.02 43.91,-0.07 5.12,0.07 10.28,-0.34 15.37,0.42 -7.52,3.59 -15.36,6.42 -22.99,9.75 -12,-1.16 -24.09,-0.28 -36.12,-0.51 -0.34,-3.19 -0.35,-6.4 -0.17,-9.59 z"
   id="path49" />
	<path
   fill="#631307"
   stroke="#631307"
   stroke-width="0.0938"
   d="m 236.45,823.16 c -0.39,-9.79 -1.67,-19.8199 0.68,-29.45 0.27,7.35 0.33,14.7 0.42,22.06 -0.23,2.47 -0.64,4.94 -1.1,7.39 z"
   id="path50" />
	<path
   fill="#681f0d"
   stroke="#681f0d"
   stroke-width="0.0938"
   d="m 239.32,908.95 c -1.97,-7.88 -2.02,-16.35 -0.45,-24.3 0.17,8.1 0.49,16.19 0.45,24.3 z"
   id="path51" />
	<path
   fill="#929291"
   stroke="#929291"
   stroke-width="0.0938"
   d="m 529.1,933.89 c 32.29,-0.49 64.6,-0.01 96.9,-0.23 3.09,-0.06 6.18,0.04 9.25,0.5 -7.83,3.5 -15.74,6.89 -23.96,9.38 -0.36,-0.12 -1.06,-0.35 -1.41,-0.47 -2.89,-0.83 -5.92,-0.84 -8.89,-0.77 -23.71,0.38 -47.44,-0.37 -71.14,0.38 l -0.7599,0.05 c -0.1501,-2.95 -0.1501,-5.9 0.01,-8.84 z"
   id="path52" />
	<path
   fill="#929291"
   stroke="#929291"
   stroke-width="0.0938"
   d="m 639.33,934.07 c 5.49,-0.92 11.13,-0.14 16.68,-0.37 113.66,-0.01 227.32,-0.01 340.99,-0.01 4.75,0.02 9.51,-0.19 14.26,0.2 0.27,2.8 0.29,5.63 0.16,8.46 -120.14,0.08 -240.28,0 -360.42,0.03 -8.42,-0.12 -16.87,0.38 -25.26,-0.5 4.5,-2.66 9.15,-5.05 13.59,-7.81 z"
   id="path53" />
	<path
   fill="#e79429"
   stroke="#e79429"
   stroke-width="0.0938"
   d="m 428.73,1049.49 c 6.46,-0.21 12.92,-0.09 19.38,-0.09 -3.15,2.9299 -5.64,7.35 -10.03,8.4199 -4.14,-1.25 -6.51,-5.3499 -9.35,-8.3299 z"
   id="path54" />
	<path
   fill="#929191"
   stroke="#929191"
   stroke-width="0.0938"
   d="m 529.13,1090.1 c 50.61,-0.2999 101.25,-0.02 151.87,-0.12 106.67,0 213.33,0 320,-0.01 3.54,-0.03 7.1,-0.1 10.65,0.23 0.11,3.14 0.1,6.3 -0.02,9.4601 -160.81,0.12 -321.63,0.01 -482.44,0.05 -0.28,-3.2 -0.29,-6.42 -0.06,-9.61 z"
   id="path55" />
	<path
   fill="#6c1a0b"
   stroke="#6c1a0b"
   stroke-width="0.0938"
   d="m 1152.54,1108.9301 c 0.35,-1 0.74,-1.9801 1.1599,-2.9301 0.1001,21.66 0.5901,43.3199 0.5801,64.99 -0.41,9.76 0.24,19.61 -1.2001,29.3101 -0.3699,-30.4601 -0.14,-60.9201 -0.5399,-91.37 z"
   id="path56" />
	<path
   fill="#641705"
   stroke="#641705"
   stroke-width="0.0938"
   d="m 247.34,1170.11 c -0.61,-4.8199 -0.61,-9.72 0.58,-14.4399 0.24,4.0199 0.5,8.0399 0.67,12.0699 -0.31,0.6 -0.93,1.78 -1.25,2.37 z"
   id="path57" />
	<path
   fill="#7a251d"
   stroke="#7a251d"
   stroke-width="0.0938"
   d="m 250.61,1268.59 c 2.99,-7.64 -0.28,-16.12 2.14,-23.9399 1.38,20.1699 2.31,40.37 4.04,60.51 1.4,23.34 3.07,46.6599 5.05,69.95 -0.47,0.15 -1.4,0.4301 -1.87,0.5701 -1.79,-21.28 -2.78,-42.63 -4.98,-63.87 -0.72,-6.92 0.17,-13.9401 -1.24,-20.8 -1.03,-5.1901 -0.07,-10.5601 -1.31,-15.7 -0.15,-1.54 -1.6,-2.0801 -2.76,-2.6801 -1.3,1.21 -2.63,2.41 -3.95,3.61 -2.88,-2.15 -1.7,-5.96 0.02,-8.47 1.54,-1.1901 3.29,0.4699 4.86,0.8199 z"
   id="path58" />
	<path
   fill="#ca892c"
   stroke="#ca892c"
   stroke-width="0.0938"
   d="m 479.95,1370 c 0.12,-6.8199 -0.6,-13.6899 0.78,-20.42 0.9,4.42 0.5,8.9401 0.55,13.4301 0.03,26.66 -0.05,53.33 0.04,79.99 -0.03,1.64 -0.17,3.28 -0.31,4.95 l -1.09,-0.05 c 0.06,-25.9701 0.01,-51.9402 0.03,-77.9002 z"
   id="path59" />
	<path
   fill="#929290"
   stroke="#929290"
   stroke-width="0.0938"
   d="m 529.16,1388.1 c 50.94,-0.33 101.9,-0.05 152.84,-0.14 100.33,0 200.66,-0.01 300.99,0 9.55,0.16 19.11,-0.37 28.65,0.25 0.12,3.14 0.12,6.28 -0.02,9.4401 -160.8,0.06 -321.6,-0.02 -482.4,0.03 -0.32,-3.1901 -0.31,-6.4001 -0.06,-9.5801 z"
   id="path60" />
	<path
   fill="#5f1606"
   stroke="#5f1606"
   stroke-width="0.0938"
   d="m 813.95,1613.76 c 0.31,-0.16 0.94,-0.48 1.25,-0.64 4.35,-0.1 8.71,-0.02 13.06,-0.4399 8.68,0.05 17.36,0.2 26.04,0.38 -8.66,1.7999 -17.55,1.1499 -26.31,0.7799 -4.69,-0.25 -9.37,0.17 -14.04,-0.08 z"
   id="path61" />
	<path
   fill="#9c3225"
   stroke="#9c3225"
   stroke-width="0.0938"
   d="m 230.46,495.29 c 2.22,7.2999 2.56,14.9399 3.62,22.45 l 0.94,0.5 c 0.08,-12.9 0.13,-25.79 -0.17,-38.6799 -2.58,4.75 -6.44,10.0499 -4.39,15.7299 z"
   id="path62" />
	<path
   fill="#9c3225"
   stroke="#9c3225"
   stroke-width="0.0938"
   d="m 241.72,994.53 c -0.13,-7.64 -0.37,-15.27 -0.75,-22.9 -2.1801,5.57 -1.25,11.63 -1.31,17.46 -0.16,2.06 0.56,4 2.06,5.44 z"
   id="path63" />
	<path
   fill="#9c3225"
   stroke="#9c3225"
   stroke-width="0.0938"
   d="m 1256.9,1675.01 c 0.03,-253.67 -0.1,-507.35 0.05,-761.02 -0.1399,-213.6599 -0.09,-427.3201 -0.11,-640.99 -0.23,-9.39 0.49,-18.8401 -0.36,-28.1899 -0.16,-0.8301 -0.49,-2.5 -0.65,-3.3301 -0.8999,-10.51 -8.0299,-19.89 -16.5599,-25.75 -4.21,-2.49 -8.78,-5.36 -13.79,-5.38 -0.8099,-0.2001 -2.4299,-0.6 -3.24,-0.7999 -7.71,-0.8401 -15.5,-0.0601 -23.24,-0.3101 -81.3,-0.0701 -162.59,0.03 -243.88,-0.0801 7.66,15.8 14.87,31.8901 20.14,48.67 1.37,4.86 2.8301,9.6901 4.52,14.4501 0.09,0.71 0.28,2.1399 0.37,2.85 l 0.2799,0.99 c 2.03,1.1 2.49,3.2799 1.92,5.39 l -0.0599,0.55 c 2.1,7.7999 3.29,15.8099 4.48,23.7999 8.12,0.58 16.28,-0.08 24.3999,0.42 -1.4099,0.61 -2.8499,1.1499 -4.3599,1.3899 17.33,0.4001 34.6599,0.9701 51.99,1.3601 10.8599,0.25 21.72,0.6699 32.5898,0.74 0,0 0,0 1e-4,0 14.62,0.72 29.26,0.8999 43.89,1.51 1.65,53.84 3.95,107.6499 5.97,161.47 0.17,9.53 0.58,19.04 0.87,28.5601 0.05,8.6399 0.39,17.27 0.73,25.8999 0.35,-5.1199 0.23,-10.25 0.5,-15.37 0.9401,6.7501 1.11,13.77 -0.28,20.4801 0.06,14.96 0.7101,29.9199 1.1001,44.8699 0.1599,-2.22 0.7999,-4.3599 1.5399,-6.45 0.3401,3.8201 0.5901,7.6699 1.3,11.45 1.13,4.6401 -1.55,9.1401 -0.84,13.8101 0.07,5.48 2.26,11.52 -0.8501,16.55 0.01,0.5599 0.04,1.6899 0.06,2.25 0.06,9.52 0.5599,19.02 0.72,28.53 -0.07,12.7699 0.4,25.5399 0.6801,38.2999 0.5599,29.5399 1.01,59.09 1.78,88.62 0.1299,-2.54 0.5,-5.05 0.9399,-7.55 0.86,6.64 0.04,13.35 0.61,20.01 0.16,3.24 -0.25,6.48 -1,9.64 -0.13,3.13 -0.1,6.26 0.11,9.4 0.3301,18.51 0.38,37.02 0.8,55.53 0.3199,51.23 1.39,102.47 1.63,153.71 0.4199,32.65 0.2999,65.3 0.89,97.9401 0.35,-1 0.74,-1.9801 1.1599,-2.9301 0.1001,21.66 0.5901,43.3199 0.5801,64.99 -0.41,9.76 0.24,19.61 -1.2001,29.3101 -0.33,26.23 0.2101,52.47 0.14,78.71 0.2101,104.33 0.22,208.66 0.3301,312.99 0.05,7.11 -0.24,14.24 0.35,21.34 l -0.2001,0.8301 C 1100.8,1614.33 1047.9,1614.24 995,1614.05 c -20.54,-0.12 -41.0901,-0.4601 -61.63,-0.15 -21.88,-0.38 -43.76,-0.4601 -65.64,-0.72 -4.48,-0.15 -8.96,-0.3101 -13.4299,-0.12 -8.66,1.7999 -17.55,1.1499 -26.3101,0.7799 -4.6899,-0.25 -9.37,0.17 -14.04,-0.08 0.3101,-0.16 0.9401,-0.48 1.25,-0.64 4.3501,-0.1 8.71,-0.02 13.0601,-0.4399 -50.3401,-1.27 -100.7,-2.0601 -151.02,-4.12 -91.49,-3.38 -182.95,-8.77 -274.03,-18.2001 -23.38,-2.1899 -46.65,-5.2999 -69.98,-7.96 -17.27,-2.38 -34.53,-4.9301 -51.82,-7.17 -2.06,-10.2 -2.35,-20.6799 -3.68,-30.99 -6.4,-56.26 -11.48,-112.67 -15.89,-169.13 -0.47,0.15 -1.4,0.4301 -1.87,0.5701 -1.79,-21.28 -2.78,-42.63 -4.98,-63.87 -0.72,-6.92 0.17,-13.9401 -1.24,-20.8 -1.03,-5.1901 -0.07,-10.5601 -1.31,-15.7 -0.15,-1.54 -1.6,-2.0801 -2.76,-2.6801 -1.3,1.21 -2.63,2.41 -3.95,3.61 -2.8799,-2.15 -1.7,-5.96 0.02,-8.47 1.54,-1.1901 3.29,0.47 4.86,0.8199 2.9901,-7.64 -0.28,-16.12 2.14,-23.9399 -1.3,-25.64 -2.8,-51.27 -4.16,-76.91 -0.31,0.6 -0.93,1.78 -1.25,2.37 -0.61,-4.8199 -0.61,-9.72 0.58,-14.4399 0.04,-6.13 -0.23,-12.27 -0.7599,-18.37 -1.03,-24.8201 -2.1201,-49.63 -3.05,-74.4501 -0.78,-22.78 -1.57,-45.55 -2.39,-68.3199 -1.5,-1.44 -2.22,-3.38 -2.06,-5.44 0.06,-5.83 -0.8701,-11.89 1.31,-17.46 -0.42,-20.89 -0.67,-41.81 -1.65,-62.68 -1.97,-7.88 -2.02,-16.35 -0.45,-24.3 -0.2,-13.9901 -0.52,-27.9901 -0.89,-41.97 0.2,-8.97 -0.27,-17.94 -0.43,-26.91 -0.23,2.47 -0.64,4.94 -1.1,7.39 -0.39,-9.79 -1.67,-19.8199 0.68,-29.45 0.07,-25.48 -0.42,-50.97 -0.66,-76.45 -0.63,-28.1699 -0.2,-56.3501 -1.05,-84.52 -0.25,4.15 -0.58,8.3 -1.0099,12.4399 -0.59,-9.21 0.44,-18.45 -0.58,-27.6399 0.21,-2.9402 0.35,-5.8701 0.42,-8.8 0.43,-7.59 -0.53,-15.1599 -0.31,-22.74 0.48,-11.6699 -0.28,-23.3401 -0.2,-35 -0.12,-11.0901 0.63,-22.1799 0.34,-33.26 -1.06,-7.51 -1.4,-15.15 -3.62,-22.45 -2.05,-5.6801 1.81,-10.98 4.39,-15.73 -0.07,-59.29 0.08,-118.5901 -0.15,-177.8801 8.43,0.3801 16.86,0.2101 25.3,0.2001 25,0.0299 50,0.0699 75,0.0599 22.15,0.1001 44.31,-0.35 66.44,0.24 -0.05,-0.6399 -0.14,-1.9399 -0.19,-2.58 1.65,-9.7999 3.49,-19.65 6.78,-29.0599 4.86,-20.42 13.48,-39.6801 22.34,-58.6301 0.28,-0.5199 0.83,-1.5599 1.11,-2.0798 -0.86,-0.1101 -2.5599,-0.3401 -3.4099,-0.4501 -90.6801,0 -181.35,-0.0499 -272.0301,0.01 -19,0.4401 -36.0699,17.2799 -36.5099,36.3099 -0.27,1.39 -0.42,2.8201 -0.41,4.25 0.04,474.01 0.02,948.03 0.01,1422.05 0.25,9.0699 -0.59,18.22 0.43,27.25 0.25,6.67 2.69,13.1801 6.55,18.61 1.46,1.91 2.7,4.28 5.02,5.29 l -0.05,0.73 c 5.97,5.45 13.51,9.83 21.72,10.33 8.33,1.36 16.8,0.66 25.2,0.8301 339,0 678,0 1017,0 9.39,-0.2101 18.84,0.5699 28.1801,-0.78 16.5599,-1.61 30.63,-15.8 33.0699,-32.11 1.4395,-8.98 0.3195,-18.1 0.6496,-27.14 z M 356.4803,231.0525 c -0.1169,-0.4702 -0.2736,-0.9397 -0.4409,-1.4077 0.1674,0.4679 0.3241,0.9374 0.4409,1.4077 z M 346,268.79 v 0 c -0.2626,-0.4727 -0.5256,-0.9445 -0.7861,-1.4175 0.2605,0.4731 0.5236,0.9449 0.7861,1.4175 z m -9.81,-6.8601 c -0.2963,-1.5018 -0.4459,-3.001 -0.4786,-4.4955 0.0327,1.4946 0.1823,2.9936 0.4786,4.4955 z m -2.4566,-21.1723 c -0.3484,0.4617 -0.799,0.8638 -1.3934,1.1824 0.5944,-0.3188 1.045,-0.7208 1.3934,-1.1824 z M 223.187,388.2623 c -0.0498,1.5546 -0.168,3.1046 -0.4066,4.6475 0.2386,-1.5429 0.3568,-3.093 0.4066,-4.6475 z M 222.5,394.45 c -0.095,0.3901 -0.1434,0.7756 -0.1561,1.158 0.0127,-0.3824 0.0611,-0.768 0.1561,-1.158 z M 216,514.04 v 0 c 0.3826,0.2899 0.7694,0.5756 1.1561,0.8621 -0.3867,-0.2865 -0.7736,-0.572 -1.1561,-0.8621 z m 6.34,65.8001 c -0.335,-1.67 -0.5351,-3.3601 -0.6851,-5.0564 0.15,1.6963 0.3501,3.3862 0.6851,5.0564 z m -0.04,136.3398 c 0.2025,-0.6975 0.5425,-1.3313 0.9433,-1.9368 -0.4008,0.6057 -0.7408,1.2393 -0.9433,1.9368 z m 5.1704,-123.2505 c 0.1647,1.0134 0.2752,2.0336 0.3469,3.0583 -0.0717,-1.0247 -0.1822,-2.0448 -0.3469,-3.0583 z m 221.6434,1030.8963 c 0.8595,0.4954 1.7009,1.0313 2.575,1.5103 -0.8741,-0.4791 -1.7157,-1.015 -2.575,-1.5103 z M 918.2,1641.77 c -0.995,-0.49 -2.02,-0.7712 -3.0635,-0.9277 1.0434,0.1565 2.0686,0.4377 3.0635,0.9277 0.7721,0.3684 1.5514,0.6267 2.3357,0.7947 -0.7845,-0.168 -1.5638,-0.4263 -2.3357,-0.7947 z m 49.2866,-1.6864 c 1.0681,0.083 2.136,0.2463 3.2034,0.5164 -1.0676,-0.27 -2.1353,-0.4333 -3.2034,-0.5164 z"
   id="path64" />
</g>
</svg>
