<?xml version="1.0" encoding="UTF-8" standalone="no"?>
<!-- Created with Inkscape (http://www.inkscape.org/) -->

<svg
   id="svg2"
   sodipodi:docname="icon_population.svg"
   viewBox="0 0 999.99997 999.99998"
   version="1.1"
   inkscape:version="1.3.2 (091e20ef0f, 2023-11-25, custom)"
   width="1000"
   height="1000"
   xmlns:inkscape="http://www.inkscape.org/namespaces/inkscape"
   xmlns:sodipodi="http://sodipodi.sourceforge.net/DTD/sodipodi-0.dtd"
   xmlns="http://www.w3.org/2000/svg"
   xmlns:svg="http://www.w3.org/2000/svg"
   xmlns:rdf="http://www.w3.org/1999/02/22-rdf-syntax-ns#"
   xmlns:cc="http://creativecommons.org/ns#"
   xmlns:dc="http://purl.org/dc/elements/1.1/">
  <title
     id="title3903">population</title>
  <defs
     id="defs4" />
  <sodipodi:namedview
     id="base"
     bordercolor="#666666"
     inkscape:pageshadow="2"
     inkscape:window-y="17"
     pagecolor="#ffffff"
     inkscape:window-height="749"
     inkscape:window-maximized="1"
     inkscape:zoom="0.35"
     inkscape:window-x="0"
     showgrid="false"
     borderopacity="1.0"
     inkscape:current-layer="layer1"
     inkscape:cx="335.71429"
     inkscape:cy="695.71429"
     inkscape:window-width="1364"
     inkscape:pageopacity="0.0"
     inkscape:document-units="px"
     inkscape:showpageshadow="2"
     inkscape:pagecheckerboard="0"
     inkscape:deskcolor="#d1d1d1" />
  <g
     id="layer1"
     inkscape:label="Layer 1"
     inkscape:groupmode="layer">
    <g
       id="g1"
       transform="matrix(2.0687978,0,0,2.0668274,-186.50715,-985.53316)"
       style="opacity:1">
      <path
         id="path3779"
         sodipodi:nodetypes="ssccsccscscsssssccsssssscsscsccsccss"
         style="fill:#0084c8;stroke-width:0"
         inkscape:connector-curvature="0"
         d="m 182.64,519.49 c -16.874,0 -30.558,13.763 -30.558,30.741 0,13.206 8.2778,24.464 19.895,28.816 v 6.0608 c -27.704,2.1634 -39.816,13.206 -41.555,32.851 l -6.466,73.033 c 6.7457,10.808 13.492,5.143 20.237,0 l 6.4661,-65.131 c 0.29095,-2.931 1.3163,-5.6699 3.5593,-7.9101 l -5.2225,83.823 c -0.18117,2.9076 1.1207,5.6224 3.0572,7.9125 -0.3362,1.8055 -0.42098,3.7876 -0.52638,5.8645 l -4.6292,91.151 c -0.49482,9.7452 3.5498,17.617 7.9633,17.617 h 10.243 c 4.4135,0 7.8273,-7.8584 7.9633,-17.617 l 1.2549,-90.052 h 16.053 c 0,0.004 -6e-5,0.007 0,0.01 l 1.1214,91.316 c 0.1198,9.7579 3.5498,17.617 7.9633,17.617 h 10.243 c 4.4135,0 8.4431,-7.8725 7.9633,-17.617 l -4.4957,-91.316 c -0.13558,-2.7524 -0.32518,-5.3317 -0.89596,-7.5628 1.6441,-2.1606 2.7513,-4.6612 2.5862,-7.3231 l -5.2225,-84.151 c -0.0441,-0.70965 -0.081,-1.4064 -0.23311,-2.0847 4.0713,2.5304 6.1924,6.2372 6.6292,10.323 l 6.9634,65.131 c 8.539,8.0638 14.464,6.2329 19.227,0 l -6.9634,-73.033 c -1.9124,-20.058 -14.467,-31.149 -43.389,-32.969 v -5.4472 c 12.361,-3.9384 21.318,-15.572 21.318,-29.312 0,-16.979 -13.676,-30.741 -30.55,-30.741 z" />
      <path
         id="path3789"
         sodipodi:nodetypes="ssccsccscscsssssccsssssscsscsccsccss"
         style="fill:#ff6600;stroke-width:0"
         inkscape:connector-curvature="0"
         d="m 473.5,485.06 c -17.3,0 -31.33,14.11 -31.33,31.517 0,13.539 8.4868,25.081 20.398,29.544 v 6.2138 c -28.403,2.218 -40.821,13.54 -42.604,33.681 l -6.6292,74.876 c 6.916,11.081 13.832,5.2728 20.748,0 l 6.6293,-66.775 c 0.2983,-3.0051 1.3495,-5.8131 3.6492,-8.1098 l -5.3544,85.939 c -0.18574,2.981 1.149,5.7642 3.1344,8.1122 -0.34472,1.851 -0.43165,3.8833 -0.53973,6.0124 l -4.746,93.453 c -0.50732,9.9906 3.6394,18.062 8.1643,18.062 h 10.502 c 4.5249,0 8.0249,-8.0572 8.1643,-18.062 l 1.2865,-92.326 h 16.458 c 0,0.005 -5e-5,0.007 0,0.01 l 1.1498,93.621 c 0.12283,10.004 3.6394,18.062 8.1643,18.062 h 10.502 c 4.5249,0 8.6562,-8.0711 8.1643,-18.062 l -4.6092,-93.621 c -0.13898,-2.8219 -0.33336,-5.4663 -0.91856,-7.7538 1.6856,-2.2151 2.8208,-4.7788 2.6514,-7.5079 l -5.3544,-86.275 c -0.0452,-0.72758 -0.083,-1.442 -0.239,-2.1374 4.1742,2.5942 6.3488,6.3947 6.7966,10.583 l 7.1392,66.775 c 8.7546,8.2674 14.829,6.3903 19.713,0 l -7.1393,-74.876 c -1.9608,-20.564 -14.832,-31.935 -44.484,-33.801 v -5.5847 c 12.673,-4.0379 21.856,-15.965 21.856,-30.052 0,-17.407 -14.021,-31.517 -31.322,-31.517 z" />
      <path
         id="path3785"
         d="m 360.49,493.72 c -15.596,0 -28.244,12.72 -28.244,28.413 0,12.206 7.6509,22.611 18.389,26.634 v 5.6018 c -25.606,1.9995 -36.8,12.206 -38.408,30.363 l -5.9762,67.502 c 6.2348,9.9894 12.47,4.7536 18.705,0 l 5.9764,-60.198 c 0.26887,-2.7092 1.2166,-5.2405 3.2897,-7.311 l -4.827,77.475 c -0.16745,2.6874 1.0359,5.1964 2.8258,7.3132 -0.31083,1.6687 -0.38919,3.5008 -0.48654,5.4202 l -4.2787,84.249 c -0.45731,9.0063 3.2809,16.283 7.3602,16.283 h 9.4674 c 4.0792,0 7.2345,-7.2639 7.3602,-16.283 l 1.1599,-83.233 h 14.837 c 0,0.004 -6e-5,0.007 0,0.008 l 1.0364,84.4 c 0.11069,9.0189 3.281,16.283 7.3602,16.283 h 9.4674 c 4.0792,0 7.8037,-7.2759 7.3602,-16.283 l -4.1552,-84.4 c -0.12544,-2.544 -0.30066,-4.928 -0.82811,-6.9902 1.5196,-1.9968 2.5429,-4.308 2.3903,-6.7684 l -4.827,-77.778 c -0.0408,-0.65589 -0.0748,-1.2999 -0.21543,-1.9269 3.7629,2.3388 5.7233,5.7649 6.1272,9.5409 l 6.436,60.198 c 7.8924,7.4533 13.369,5.761 17.771,0 l -6.4359,-67.502 c -1.7677,-18.539 -13.371,-28.79 -40.103,-30.472 v -5.0347 c 11.425,-3.6402 19.703,-14.393 19.703,-27.092 0,-15.693 -12.64,-28.413 -28.237,-28.413 z"
         sodipodi:nodetypes="ssccsccscscsssssccsssssscsscsccsccss"
         style="fill:#9ade00;stroke-width:0"
         inkscape:connector-curvature="0" />
      <path
         id="path3783"
         sodipodi:nodetypes="ssccsccscscsssssccsssssscsscsccsccss"
         style="fill:#ff9900;stroke-width:0"
         inkscape:connector-curvature="0"
         d="m 256.84,479.12 c -16.645,0 -30.143,13.576 -30.143,30.324 0,13.026 8.1654,24.131 19.625,28.425 v 5.9784 c -27.327,2.134 -39.274,13.027 -40.99,32.405 l -6.378,72.04 c 6.654,10.661 13.308,5.0731 19.962,0 l 6.3782,-64.246 c 0.28704,-2.8913 1.2985,-5.5928 3.511,-7.8026 l -5.1516,82.683 c -0.1787,2.8681 1.1055,5.5458 3.0157,7.8049 -0.33164,1.7809 -0.41528,3.7362 -0.5193,5.7846 l -4.5662,89.913 c -0.48808,9.6118 3.5016,17.378 7.8551,17.378 h 10.104 c 4.3535,0 7.721,-7.7523 7.8551,-17.378 l 1.2377,-88.829 h 15.835 c 0,0.004 -4e-5,0.007 0,0.01 l 1.1062,90.075 c 0.1182,9.6252 3.5016,17.377 7.8551,17.377 h 10.104 c 4.3535,0 8.3283,-7.7651 7.855,-17.377 l -4.4346,-90.074 c -0.1338,-2.715 -0.3208,-5.2593 -0.88377,-7.4601 1.6217,-2.1311 2.7139,-4.5977 2.551,-7.2235 l -5.1516,-83.007 c -0.0434,-0.70001 -0.0799,-1.3873 -0.22993,-2.0564 4.016,2.496 6.1081,6.1524 6.5391,10.182 l 6.8688,64.246 c 8.4229,7.9544 14.268,6.1483 18.966,0 l -6.8686,-72.04 c -1.8865,-19.785 -14.27,-30.726 -42.799,-32.521 v -5.3732 c 12.193,-3.8849 21.028,-15.36 21.028,-28.914 0,-16.748 -13.49,-30.324 -30.135,-30.324 z" />
      <path
         id="path2985"
         sodipodi:nodetypes="ssccsccscscsssssccsssssscsscsccsccss"
         style="fill:#ff4141;stroke-width:0"
         inkscape:connector-curvature="0"
         d="m 290.54,596.85 c -18.644,0 -33.762,15.206 -33.762,33.965 0,14.59 9.146,27.029 21.982,31.838 v 6.6964 c -30.609,2.3902 -43.991,14.591 -45.912,36.296 l -7.144,80.691 c 7.4532,11.941 14.906,5.6823 22.359,0 l 7.144,-71.961 c 0.32152,-3.2385 1.4544,-6.2645 3.9327,-8.7397 l -5.7702,92.613 c -0.20016,3.2126 1.2382,6.2119 3.3778,8.7422 -0.37146,1.9948 -0.46515,4.1849 -0.58168,6.4794 l -5.1145,100.71 c -0.54674,10.766 3.9221,19.464 8.7984,19.464 h 11.317 c 4.8763,0 8.6481,-8.6834 8.7984,-19.464 l 1.3864,-99.496 h 17.736 c 0,0.005 -4e-5,0.007 0,0.0107 l 1.2391,100.89 c 0.1324,10.781 3.9221,19.464 8.7984,19.464 h 11.317 c 4.8763,0 9.3284,-8.6974 8.7984,-19.464 l -4.9673,-100.89 c -0.14972,-3.041 -0.35918,-5.8909 -0.98988,-8.3559 1.8165,-2.3871 3.0399,-5.15 2.8574,-8.091 l -5.7702,-92.975 c -0.0487,-0.78412 -0.0895,-1.5539 -0.2576,-2.3033 4.4984,2.7957 6.8417,6.8912 7.3244,11.405 l 7.6936,71.961 c 9.4345,8.9094 15.981,6.8865 21.243,0 l -7.6936,-80.691 c -2.113,-22.161 -15.984,-34.416 -47.939,-36.426 v -6.0184 c 13.657,-4.3515 23.553,-17.205 23.553,-32.386 0,-18.759 -15.11,-33.965 -33.754,-33.965 z" />
      <path
         id="path3781"
         d="m 401.24,623 c -18.382,0 -33.288,14.992 -33.288,33.487 0,14.385 9.0173,26.649 21.673,31.39 v 6.6022 c -30.178,2.3566 -43.372,14.386 -45.267,35.786 l -7.0436,79.557 c 7.3483,11.773 14.697,5.6024 22.045,0 l 7.0436,-70.949 c 0.31698,-3.193 1.4339,-6.1765 3.8773,-8.6168 l -5.689,91.31 c -0.19734,3.1674 1.2208,6.1246 3.3303,8.6193 -0.36623,1.9668 -0.4586,4.126 -0.57348,6.3883 l -5.0426,99.294 c -0.53906,10.615 3.8669,19.191 8.6746,19.191 h 11.158 c 4.8077,0 8.5265,-8.5612 8.6746,-19.191 l 1.3669,-98.097 h 17.487 c 0,0.004 -5e-5,0.007 0,0.0107 l 1.2216,99.473 c 0.13054,10.63 3.8669,19.191 8.6746,19.191 h 11.158 c 4.8077,0 9.1973,-8.5752 8.6746,-19.191 l -4.8974,-99.473 c -0.14763,-2.9983 -0.35415,-5.808 -0.97596,-8.2384 1.791,-2.3535 2.9972,-5.0775 2.8172,-7.9772 l -5.6891,-91.668 c -0.048,-0.77309 -0.0881,-1.5321 -0.25396,-2.271 4.4351,2.7564 6.7456,6.7943 7.2214,11.245 l 7.5854,70.949 c 9.3018,8.7842 15.756,6.7897 20.944,0 l -7.5854,-79.556 c -2.0832,-21.849 -15.759,-33.932 -47.265,-35.914 v -5.9338 c 13.465,-4.2903 23.222,-16.963 23.222,-31.931 0,-18.495 -14.898,-33.487 -33.279,-33.487 z"
         sodipodi:nodetypes="ssccsccscscsssssccsssssscsscsccsccss"
         style="fill:#d76cff;stroke-width:0"
         inkscape:connector-curvature="0" />
      <path
         id="path3787"
         d="m 157.87,583.94 c -18.382,0 -33.288,14.992 -33.288,33.487 0,14.385 9.0173,26.649 21.673,31.39 v 6.6022 c -30.178,2.3566 -43.372,14.386 -45.267,35.786 l -7.0436,79.557 c 7.3483,11.773 14.697,5.6024 22.045,0 l 7.0436,-70.949 c 0.31698,-3.193 1.4339,-6.1764 3.8773,-8.6168 l -5.689,91.31 c -0.19735,3.1674 1.2208,6.1246 3.3303,8.6193 -0.36624,1.9668 -0.4586,4.126 -0.57349,6.3883 l -5.0426,99.294 c -0.53906,10.615 3.8669,19.191 8.6746,19.191 h 11.158 c 4.8077,0 8.5265,-8.5612 8.6746,-19.191 l 1.3669,-98.097 h 17.487 c 0,0.004 -4e-5,0.007 0,0.0107 l 1.2216,99.473 c 0.13054,10.63 3.8669,19.191 8.6746,19.191 h 11.158 c 4.8077,0 9.1973,-8.5752 8.6746,-19.191 l -4.8974,-99.473 c -0.14764,-2.9983 -0.35416,-5.808 -0.97597,-8.2384 1.791,-2.3535 2.9971,-5.0775 2.8172,-7.9772 l -5.6891,-91.668 c -0.0479,-0.7731 -0.0882,-1.5321 -0.25397,-2.271 4.4351,2.7564 6.7456,6.7943 7.2214,11.245 l 7.5854,70.949 c 9.3018,8.7842 15.756,6.7897 20.944,0 l -7.5854,-79.556 c -2.06,-21.83 -15.73,-33.91 -47.24,-35.89 v -5.9338 c 13.465,-4.2903 23.222,-16.963 23.222,-31.931 0,-18.495 -14.898,-33.487 -33.279,-33.487 z"
         sodipodi:nodetypes="ssccsccscscsssssccsssssscsscsccsccss"
         style="fill:#19aeff;stroke-width:0"
         inkscape:connector-curvature="0" />
      <path
         id="path3873"
         sodipodi:nodetypes="ssccsccscscsssssccsssssscsscsccsccss"
         style="fill:#666666;stroke-width:0"
         inkscape:connector-curvature="0"
         d="m 506.44,590.74 c -18.382,0 -33.288,14.992 -33.288,33.487 0,14.385 9.0173,26.649 21.673,31.39 v 6.6022 c -30.178,2.3566 -43.372,14.386 -45.267,35.786 l -7.0436,79.557 c 7.3483,11.773 14.697,5.6023 22.045,0 l 7.0436,-70.949 c 0.31699,-3.193 1.4339,-6.1765 3.8774,-8.6168 l -5.689,91.31 c -0.19736,3.1674 1.2208,6.1246 3.3303,8.6193 -0.36623,1.9668 -0.4586,4.126 -0.57348,6.3883 l -5.0426,99.294 c -0.53904,10.615 3.867,19.191 8.6746,19.191 h 11.158 c 4.8077,0 8.5265,-8.5612 8.6746,-19.191 l 1.3669,-98.097 h 17.487 c 0,0.004 -5e-5,0.007 0,0.0107 l 1.2216,99.473 c 0.13054,10.63 3.8669,19.191 8.6747,19.191 h 11.158 c 4.8077,0 9.1973,-8.5752 8.6746,-19.191 l -4.8974,-99.473 c -0.14763,-2.9983 -0.35415,-5.808 -0.97595,-8.2384 1.791,-2.3535 2.9971,-5.0775 2.8172,-7.9772 l -5.6891,-91.668 c -0.0479,-0.77308 -0.0882,-1.5321 -0.25397,-2.271 4.4351,2.7564 6.7456,6.7943 7.2214,11.245 l 7.5854,70.949 c 9.3018,8.7842 15.756,6.7897 20.944,0 l -7.5854,-79.556 c -2.06,-21.84 -15.74,-33.92 -47.24,-35.9 v -5.9338 c 13.465,-4.2903 23.222,-16.963 23.222,-31.931 0,-18.495 -14.898,-33.487 -33.279,-33.487 z" />
    </g>
  </g>
  <metadata
     id="metadata1">
    <rdf:RDF>
      <cc:Work>
        <dc:format>image/svg+xml</dc:format>
        <dc:type
           rdf:resource="http://purl.org/dc/dcmitype/StillImage" />
        <cc:license
           rdf:resource="http://creativecommons.org/publicdomain/zero/1.0/" />
        <dc:publisher>
          <cc:Agent
             rdf:about="http://openclipart.org/">
            <dc:title>Openclipart</dc:title>
          </cc:Agent>
        </dc:publisher>
        <dc:title>population</dc:title>
        <dc:date>2010-12-26T13:02:01</dc:date>
        <dc:description />
        <dc:source>https://openclipart.org/detail/101989/population-by-netalloy</dc:source>
        <dc:creator>
          <cc:Agent>
            <dc:title>netalloy</dc:title>
          </cc:Agent>
        </dc:creator>
        <dc:subject>
          <rdf:Bag>
            <rdf:li>all</rdf:li>
            <rdf:li>association</rdf:li>
            <rdf:li>community</rdf:li>
            <rdf:li>get together</rdf:li>
            <rdf:li>group</rdf:li>
            <rdf:li>meeting</rdf:li>
            <rdf:li>people</rdf:li>
            <rdf:li>population</rdf:li>
            <rdf:li>public</rdf:li>
            <rdf:li>social</rdf:li>
            <rdf:li>society</rdf:li>
            <rdf:li>team</rdf:li>
          </rdf:Bag>
        </dc:subject>
      </cc:Work>
      <cc:License
         rdf:about="http://creativecommons.org/licenses/publicdomain/">
        <cc:permits
           rdf:resource="http://creativecommons.org/ns#Reproduction" />
        <cc:permits
           rdf:resource="http://creativecommons.org/ns#Distribution" />
        <cc:permits
           rdf:resource="http://creativecommons.org/ns#DerivativeWorks" />
      </cc:License>
    </rdf:RDF>
  </metadata>
</svg>
